# xmcd
#
# Track frame offsets:
#	150
#	21597
#	39838
#	53197
#	68452
#	83066
#	100486
#	120615
#	136939
#	150845
#	165779
#	176311
#	189793
#	200895
#	214610
#	233883
#	248151
#	263683
#	278590
#	293021
#
# Disc length: 4123 seconds
#
# Revision: 1
# Processed by: cddbd v1.5.2PL0 Copyright (c) Steve Scherf et al.
# Submitted via: audiograbber 1.83.01
#
DISCID=00101914
DTITLE=Troy Cassar-Daley and Adam Harvey - The Great Country Song Book
DYEAR=2013
DGENRE=Country
TTITLE0=Good Hearted Woman
TTITLE1=Mamas Don't Let Your Babies Grow Up To Be Cowboys
TTITLE2=Crystal Chandeliers
TTITLE3=He Stopped Loving Her Today
TTITLE4=Lights On The Hill
TTITLE5=For The Good Times
TTITLE6=Coward Of The County
TTITLE7=Luckenbach Texas (Back To The Basics Of Love)
TTITLE8=Indian Pacific
TTITLE9=Rhinestone Cowboy
TTITLE10=Mama Tried
TTITLE11=Behind Closed Doors
TTITLE12=I Walk The Line
TTITLE13=Hey Good Lookin'
TTITLE14=Old Dogs, Children And Watermelon Wine
TTITLE15=Oh Lonesome Me
TTITLE16=You're My Best Friend
TTITLE17=Seven Spanish Angels
TTITLE18=That's The Way Love Goes
TTITLE19=Medley: Thank God I'm A Country Boy/Before The Next Teardrop Falls/On 
TTITLE19=The Road Again
EXTD=
EXTT0=
EXTT1=
EXTT2=
EXTT3=
EXTT4=
EXTT5=
EXTT6=
EXTT7=
EXTT8=
EXTT9=
EXTT10=
EXTT11=
EXTT12=
EXTT13=
EXTT14=
EXTT15=
EXTT16=
EXTT17=
EXTT18=
EXTT19=
PLAYORDER=
